<mxfile host="app.diagrams.net" modified="2021-06-15T03:40:32.211Z" agent="5.0 (Windows NT 6.1; Win64; x64) AppleWebKit/537.36 (KHTML, like Gecko) Chrome/83.0.4103.116 Safari/537.36" etag="I3DNEGWkTcXx364qPRMI" version="14.7.3" type="github">
  <diagram id="mjatXQhWCeuVbCF4igxy" name="Page-1">
    <mxGraphModel dx="981" dy="492" grid="1" gridSize="10" guides="1" tooltips="1" connect="1" arrows="1" fold="1" page="1" pageScale="1" pageWidth="827" pageHeight="1169" math="0" shadow="0">
      <root>
        <mxCell id="0" />
        <mxCell id="1" parent="0" />
        <mxCell id="XEsbzcuqn403GBl8sRR0-1" value="main函数的栈底指针(r7)" style="rounded=0;whiteSpace=wrap;html=1;fillColor=#B9E0A5;" vertex="1" parent="1">
          <mxGeometry x="250" y="200" width="150" height="30" as="geometry" />
        </mxCell>
        <mxCell id="XEsbzcuqn403GBl8sRR0-8" value="......" style="rounded=0;whiteSpace=wrap;html=1;fillColor=#E5CCFF;" vertex="1" parent="1">
          <mxGeometry x="250" y="170" width="150" height="30" as="geometry" />
        </mxCell>
        <mxCell id="XEsbzcuqn403GBl8sRR0-11" value="main函数父函数lr" style="rounded=0;whiteSpace=wrap;html=1;fillColor=#B9E0A5;" vertex="1" parent="1">
          <mxGeometry x="250" y="230" width="150" height="30" as="geometry" />
        </mxCell>
        <mxCell id="XEsbzcuqn403GBl8sRR0-12" value="变量a" style="rounded=0;whiteSpace=wrap;html=1;fillColor=#B9E0A5;" vertex="1" parent="1">
          <mxGeometry x="250" y="260" width="150" height="30" as="geometry" />
        </mxCell>
        <mxCell id="XEsbzcuqn403GBl8sRR0-13" value="变量b" style="rounded=0;whiteSpace=wrap;html=1;fillColor=#B9E0A5;" vertex="1" parent="1">
          <mxGeometry x="250" y="290" width="150" height="30" as="geometry" />
        </mxCell>
        <mxCell id="XEsbzcuqn403GBl8sRR0-14" value="形参0" style="rounded=0;whiteSpace=wrap;html=1;fillColor=#B9E0A5;" vertex="1" parent="1">
          <mxGeometry x="250" y="320" width="150" height="30" as="geometry" />
        </mxCell>
        <mxCell id="XEsbzcuqn403GBl8sRR0-15" value="形参1" style="rounded=0;whiteSpace=wrap;html=1;fillColor=#B9E0A5;" vertex="1" parent="1">
          <mxGeometry x="250" y="350" width="150" height="30" as="geometry" />
        </mxCell>
        <mxCell id="XEsbzcuqn403GBl8sRR0-16" value="变量c" style="rounded=0;whiteSpace=wrap;html=1;fillColor=#7EA6E0;" vertex="1" parent="1">
          <mxGeometry x="250" y="440" width="150" height="30" as="geometry" />
        </mxCell>
        <mxCell id="XEsbzcuqn403GBl8sRR0-18" value="fun函数的栈底指针(r7)" style="rounded=0;whiteSpace=wrap;html=1;fillColor=#7EA6E0;" vertex="1" parent="1">
          <mxGeometry x="250" y="380" width="150" height="30" as="geometry" />
        </mxCell>
        <mxCell id="XEsbzcuqn403GBl8sRR0-19" value="变量d" style="rounded=0;whiteSpace=wrap;html=1;fillColor=#7EA6E0;" vertex="1" parent="1">
          <mxGeometry x="250" y="470" width="150" height="30" as="geometry" />
        </mxCell>
        <mxCell id="XEsbzcuqn403GBl8sRR0-20" value="形参0" style="rounded=0;whiteSpace=wrap;html=1;fillColor=#7EA6E0;" vertex="1" parent="1">
          <mxGeometry x="250" y="500" width="150" height="30" as="geometry" />
        </mxCell>
        <mxCell id="XEsbzcuqn403GBl8sRR0-21" value="形参1" style="rounded=0;whiteSpace=wrap;html=1;fillColor=#7EA6E0;" vertex="1" parent="1">
          <mxGeometry x="250" y="530" width="150" height="30" as="geometry" />
        </mxCell>
        <mxCell id="XEsbzcuqn403GBl8sRR0-24" value="" style="endArrow=classic;html=1;" edge="1" parent="1">
          <mxGeometry width="50" height="50" relative="1" as="geometry">
            <mxPoint x="450" y="170" as="sourcePoint" />
            <mxPoint x="450" y="560" as="targetPoint" />
          </mxGeometry>
        </mxCell>
        <mxCell id="XEsbzcuqn403GBl8sRR0-25" value="高地址" style="text;html=1;strokeColor=none;fillColor=none;align=center;verticalAlign=middle;whiteSpace=wrap;rounded=0;" vertex="1" parent="1">
          <mxGeometry x="480" y="170" width="40" height="20" as="geometry" />
        </mxCell>
        <mxCell id="XEsbzcuqn403GBl8sRR0-26" value="低地址" style="text;html=1;strokeColor=none;fillColor=none;align=center;verticalAlign=middle;whiteSpace=wrap;rounded=0;" vertex="1" parent="1">
          <mxGeometry x="470" y="510" width="40" height="20" as="geometry" />
        </mxCell>
        <mxCell id="XEsbzcuqn403GBl8sRR0-27" value="" style="rounded=0;whiteSpace=wrap;html=1;fillColor=#7EA6E0;" vertex="1" parent="1">
          <mxGeometry x="250" y="410" width="150" height="30" as="geometry" />
        </mxCell>
        <mxCell id="XEsbzcuqn403GBl8sRR0-30" value="main栈帧" style="text;html=1;strokeColor=none;fillColor=none;align=center;verticalAlign=middle;whiteSpace=wrap;rounded=0;" vertex="1" parent="1">
          <mxGeometry x="170" y="265" width="60" height="20" as="geometry" />
        </mxCell>
        <mxCell id="XEsbzcuqn403GBl8sRR0-31" value="fun栈帧" style="text;html=1;strokeColor=none;fillColor=none;align=center;verticalAlign=middle;whiteSpace=wrap;rounded=0;" vertex="1" parent="1">
          <mxGeometry x="170" y="460" width="60" height="20" as="geometry" />
        </mxCell>
        <mxCell id="XEsbzcuqn403GBl8sRR0-33" value="" style="shape=curlyBracket;whiteSpace=wrap;html=1;rounded=1;fillColor=#7EA6E0;" vertex="1" parent="1">
          <mxGeometry x="230" y="200" width="20" height="180" as="geometry" />
        </mxCell>
        <mxCell id="XEsbzcuqn403GBl8sRR0-35" value="" style="shape=curlyBracket;whiteSpace=wrap;html=1;rounded=1;fillColor=#7EA6E0;" vertex="1" parent="1">
          <mxGeometry x="230" y="380" width="20" height="180" as="geometry" />
        </mxCell>
        <mxCell id="XEsbzcuqn403GBl8sRR0-38" value="......" style="rounded=0;whiteSpace=wrap;html=1;fillColor=#E5CCFF;" vertex="1" parent="1">
          <mxGeometry x="705" y="73.75" width="170" height="30" as="geometry" />
        </mxCell>
        <mxCell id="XEsbzcuqn403GBl8sRR0-41" value="main参数0" style="rounded=0;whiteSpace=wrap;html=1;fillColor=#B9E0A5;" vertex="1" parent="1">
          <mxGeometry x="705" y="193.75" width="170" height="30" as="geometry" />
        </mxCell>
        <mxCell id="XEsbzcuqn403GBl8sRR0-42" value="&lt;span&gt;main函数父函数lr(x30)&lt;/span&gt;" style="rounded=0;whiteSpace=wrap;html=1;fillColor=#B9E0A5;" vertex="1" parent="1">
          <mxGeometry x="705" y="281.25" width="170" height="58.75" as="geometry" />
        </mxCell>
        <mxCell id="XEsbzcuqn403GBl8sRR0-43" value="main函数父函数栈顶指针(x29)" style="rounded=0;whiteSpace=wrap;html=1;fillColor=#B9E0A5;" vertex="1" parent="1">
          <mxGeometry x="705" y="340.25" width="170" height="58.75" as="geometry" />
        </mxCell>
        <mxCell id="XEsbzcuqn403GBl8sRR0-49" value="" style="endArrow=classic;html=1;" edge="1" parent="1">
          <mxGeometry width="50" height="50" relative="1" as="geometry">
            <mxPoint x="1020" y="80" as="sourcePoint" />
            <mxPoint x="1020" y="810" as="targetPoint" />
          </mxGeometry>
        </mxCell>
        <mxCell id="XEsbzcuqn403GBl8sRR0-50" value="高地址" style="text;html=1;strokeColor=none;fillColor=none;align=center;verticalAlign=middle;whiteSpace=wrap;rounded=0;" vertex="1" parent="1">
          <mxGeometry x="1050" y="73.75" width="40" height="20" as="geometry" />
        </mxCell>
        <mxCell id="XEsbzcuqn403GBl8sRR0-51" value="低地址" style="text;html=1;strokeColor=none;fillColor=none;align=center;verticalAlign=middle;whiteSpace=wrap;rounded=0;" vertex="1" parent="1">
          <mxGeometry x="1050" y="764.25" width="40" height="20" as="geometry" />
        </mxCell>
        <mxCell id="XEsbzcuqn403GBl8sRR0-53" value="main栈帧" style="text;html=1;strokeColor=none;fillColor=none;align=center;verticalAlign=middle;whiteSpace=wrap;rounded=0;" vertex="1" parent="1">
          <mxGeometry x="625" y="240" width="60" height="20" as="geometry" />
        </mxCell>
        <mxCell id="XEsbzcuqn403GBl8sRR0-55" value="" style="shape=curlyBracket;whiteSpace=wrap;html=1;rounded=1;fillColor=#7EA6E0;" vertex="1" parent="1">
          <mxGeometry x="685" y="103.75" width="20" height="296.25" as="geometry" />
        </mxCell>
        <mxCell id="XEsbzcuqn403GBl8sRR0-57" value="main sp" style="text;html=1;strokeColor=none;fillColor=none;align=center;verticalAlign=middle;whiteSpace=wrap;rounded=0;" vertex="1" parent="1">
          <mxGeometry x="875" y="384" width="55" height="20" as="geometry" />
        </mxCell>
        <mxCell id="XEsbzcuqn403GBl8sRR0-59" value="main sp+28" style="text;html=1;strokeColor=none;fillColor=none;align=center;verticalAlign=middle;whiteSpace=wrap;rounded=0;" vertex="1" parent="1">
          <mxGeometry x="885" y="208.75" width="65" height="20" as="geometry" />
        </mxCell>
        <mxCell id="XEsbzcuqn403GBl8sRR0-60" value="main参数1" style="rounded=0;whiteSpace=wrap;html=1;fillColor=#B9E0A5;" vertex="1" parent="1">
          <mxGeometry x="705" y="251.25" width="170" height="30" as="geometry" />
        </mxCell>
        <mxCell id="XEsbzcuqn403GBl8sRR0-61" value="main sp+16" style="text;html=1;strokeColor=none;fillColor=none;align=center;verticalAlign=middle;whiteSpace=wrap;rounded=0;" vertex="1" parent="1">
          <mxGeometry x="885" y="266.25" width="65" height="23.75" as="geometry" />
        </mxCell>
        <mxCell id="XEsbzcuqn403GBl8sRR0-62" value="..." style="rounded=0;whiteSpace=wrap;html=1;fillColor=#B9E0A5;" vertex="1" parent="1">
          <mxGeometry x="705" y="221.25" width="170" height="30" as="geometry" />
        </mxCell>
        <mxCell id="XEsbzcuqn403GBl8sRR0-63" value="变量a" style="rounded=0;whiteSpace=wrap;html=1;fillColor=#B9E0A5;" vertex="1" parent="1">
          <mxGeometry x="705" y="103.75" width="170" height="30" as="geometry" />
        </mxCell>
        <mxCell id="XEsbzcuqn403GBl8sRR0-64" value="main sp+44" style="text;html=1;strokeColor=none;fillColor=none;align=center;verticalAlign=middle;whiteSpace=wrap;rounded=0;" vertex="1" parent="1">
          <mxGeometry x="885" y="118.75" width="65" height="20" as="geometry" />
        </mxCell>
        <mxCell id="XEsbzcuqn403GBl8sRR0-65" value="变量b" style="rounded=0;whiteSpace=wrap;html=1;fillColor=#B9E0A5;" vertex="1" parent="1">
          <mxGeometry x="705" y="133.75" width="170" height="30" as="geometry" />
        </mxCell>
        <mxCell id="XEsbzcuqn403GBl8sRR0-66" value="main sp+40" style="text;html=1;strokeColor=none;fillColor=none;align=center;verticalAlign=middle;whiteSpace=wrap;rounded=0;" vertex="1" parent="1">
          <mxGeometry x="885" y="148.75" width="65" height="20" as="geometry" />
        </mxCell>
        <mxCell id="XEsbzcuqn403GBl8sRR0-67" value="...." style="rounded=0;whiteSpace=wrap;html=1;fillColor=#B9E0A5;" vertex="1" parent="1">
          <mxGeometry x="705" y="163.75" width="170" height="30" as="geometry" />
        </mxCell>
        <mxCell id="XEsbzcuqn403GBl8sRR0-68" value="" style="edgeStyle=elbowEdgeStyle;elbow=horizontal;endArrow=classic;html=1;entryX=1;entryY=0;entryDx=0;entryDy=0;exitX=1;exitY=0.5;exitDx=0;exitDy=0;" edge="1" parent="1" source="XEsbzcuqn403GBl8sRR0-43" target="XEsbzcuqn403GBl8sRR0-63">
          <mxGeometry width="50" height="50" relative="1" as="geometry">
            <mxPoint x="875" y="321.25" as="sourcePoint" />
            <mxPoint x="995" y="111.25" as="targetPoint" />
            <Array as="points">
              <mxPoint x="965" y="221.25" />
            </Array>
          </mxGeometry>
        </mxCell>
        <mxCell id="XEsbzcuqn403GBl8sRR0-71" value="fun1参数0" style="rounded=0;whiteSpace=wrap;html=1;fillColor=#7EA6E0;" vertex="1" parent="1">
          <mxGeometry x="705" y="489" width="170" height="30" as="geometry" />
        </mxCell>
        <mxCell id="XEsbzcuqn403GBl8sRR0-72" value="&lt;span&gt;main函数lr(x30)&lt;/span&gt;" style="rounded=0;whiteSpace=wrap;html=1;fillColor=#7EA6E0;" vertex="1" parent="1">
          <mxGeometry x="705" y="576.5" width="170" height="58.75" as="geometry" />
        </mxCell>
        <mxCell id="XEsbzcuqn403GBl8sRR0-73" value="main函数栈顶指针(x29)" style="rounded=0;whiteSpace=wrap;html=1;fillColor=#7EA6E0;" vertex="1" parent="1">
          <mxGeometry x="705" y="635.5" width="170" height="58.75" as="geometry" />
        </mxCell>
        <mxCell id="XEsbzcuqn403GBl8sRR0-74" value="fun1栈帧" style="text;html=1;strokeColor=none;fillColor=none;align=center;verticalAlign=middle;whiteSpace=wrap;rounded=0;" vertex="1" parent="1">
          <mxGeometry x="625" y="535.25" width="60" height="20" as="geometry" />
        </mxCell>
        <mxCell id="XEsbzcuqn403GBl8sRR0-75" value="" style="shape=curlyBracket;whiteSpace=wrap;html=1;rounded=1;fillColor=#7EA6E0;" vertex="1" parent="1">
          <mxGeometry x="685" y="399" width="20" height="296.25" as="geometry" />
        </mxCell>
        <mxCell id="XEsbzcuqn403GBl8sRR0-76" value="fun1 sp" style="text;html=1;strokeColor=none;fillColor=none;align=center;verticalAlign=middle;whiteSpace=wrap;rounded=0;" vertex="1" parent="1">
          <mxGeometry x="875" y="680.25" width="55" height="20" as="geometry" />
        </mxCell>
        <mxCell id="XEsbzcuqn403GBl8sRR0-77" value="fun1 sp+28" style="text;html=1;strokeColor=none;fillColor=none;align=center;verticalAlign=middle;whiteSpace=wrap;rounded=0;" vertex="1" parent="1">
          <mxGeometry x="885" y="504" width="65" height="20" as="geometry" />
        </mxCell>
        <mxCell id="XEsbzcuqn403GBl8sRR0-78" value="fun1参数1" style="rounded=0;whiteSpace=wrap;html=1;fillColor=#7EA6E0;" vertex="1" parent="1">
          <mxGeometry x="705" y="546.5" width="170" height="30" as="geometry" />
        </mxCell>
        <mxCell id="XEsbzcuqn403GBl8sRR0-79" value="fun1 sp+16" style="text;html=1;strokeColor=none;fillColor=none;align=center;verticalAlign=middle;whiteSpace=wrap;rounded=0;" vertex="1" parent="1">
          <mxGeometry x="875" y="560" width="75" height="20" as="geometry" />
        </mxCell>
        <mxCell id="XEsbzcuqn403GBl8sRR0-80" value="..." style="rounded=0;whiteSpace=wrap;html=1;fillColor=#7EA6E0;" vertex="1" parent="1">
          <mxGeometry x="705" y="516.5" width="170" height="30" as="geometry" />
        </mxCell>
        <mxCell id="XEsbzcuqn403GBl8sRR0-81" value="变量c" style="rounded=0;whiteSpace=wrap;html=1;fillColor=#7EA6E0;" vertex="1" parent="1">
          <mxGeometry x="705" y="399" width="170" height="30" as="geometry" />
        </mxCell>
        <mxCell id="XEsbzcuqn403GBl8sRR0-82" value="fun1 sp+44" style="text;html=1;strokeColor=none;fillColor=none;align=center;verticalAlign=middle;whiteSpace=wrap;rounded=0;" vertex="1" parent="1">
          <mxGeometry x="885" y="414" width="65" height="20" as="geometry" />
        </mxCell>
        <mxCell id="XEsbzcuqn403GBl8sRR0-83" value="变量d" style="rounded=0;whiteSpace=wrap;html=1;fillColor=#7EA6E0;" vertex="1" parent="1">
          <mxGeometry x="705" y="429" width="170" height="30" as="geometry" />
        </mxCell>
        <mxCell id="XEsbzcuqn403GBl8sRR0-84" value="fun1 sp+40" style="text;html=1;strokeColor=none;fillColor=none;align=center;verticalAlign=middle;whiteSpace=wrap;rounded=0;" vertex="1" parent="1">
          <mxGeometry x="885" y="444" width="65" height="20" as="geometry" />
        </mxCell>
        <mxCell id="XEsbzcuqn403GBl8sRR0-85" value="...." style="rounded=0;whiteSpace=wrap;html=1;fillColor=#7EA6E0;" vertex="1" parent="1">
          <mxGeometry x="705" y="459" width="170" height="30" as="geometry" />
        </mxCell>
        <mxCell id="XEsbzcuqn403GBl8sRR0-86" value="" style="edgeStyle=elbowEdgeStyle;elbow=horizontal;endArrow=classic;html=1;entryX=1;entryY=0;entryDx=0;entryDy=0;exitX=1;exitY=0.5;exitDx=0;exitDy=0;" edge="1" parent="1" source="XEsbzcuqn403GBl8sRR0-73" target="XEsbzcuqn403GBl8sRR0-81">
          <mxGeometry width="50" height="50" relative="1" as="geometry">
            <mxPoint x="875" y="616.5" as="sourcePoint" />
            <mxPoint x="995" y="406.5" as="targetPoint" />
            <Array as="points">
              <mxPoint x="965" y="516.5" />
            </Array>
          </mxGeometry>
        </mxCell>
        <mxCell id="XEsbzcuqn403GBl8sRR0-92" value="fun2参数0" style="rounded=0;whiteSpace=wrap;html=1;fillColor=#FFFFCC;" vertex="1" parent="1">
          <mxGeometry x="705" y="694.25" width="170" height="30" as="geometry" />
        </mxCell>
        <mxCell id="XEsbzcuqn403GBl8sRR0-93" value="fun2参数1" style="rounded=0;whiteSpace=wrap;html=1;fillColor=#FFFFCC;" vertex="1" parent="1">
          <mxGeometry x="705" y="720" width="170" height="34.25" as="geometry" />
        </mxCell>
        <mxCell id="XEsbzcuqn403GBl8sRR0-94" value="" style="rounded=0;whiteSpace=wrap;html=1;fillColor=#FFFFCC;" vertex="1" parent="1">
          <mxGeometry x="705" y="754.25" width="170" height="30" as="geometry" />
        </mxCell>
        <mxCell id="XEsbzcuqn403GBl8sRR0-97" value="..." style="rounded=0;whiteSpace=wrap;html=1;fillColor=#FFFFCC;" vertex="1" parent="1">
          <mxGeometry x="705" y="784.25" width="170" height="30" as="geometry" />
        </mxCell>
        <mxCell id="XEsbzcuqn403GBl8sRR0-100" value="fun2 sp+12" style="text;html=1;strokeColor=none;fillColor=none;align=center;verticalAlign=middle;whiteSpace=wrap;rounded=0;" vertex="1" parent="1">
          <mxGeometry x="875" y="710" width="75" height="20" as="geometry" />
        </mxCell>
        <mxCell id="XEsbzcuqn403GBl8sRR0-101" value="fun2 sp+8" style="text;html=1;strokeColor=none;fillColor=none;align=center;verticalAlign=middle;whiteSpace=wrap;rounded=0;" vertex="1" parent="1">
          <mxGeometry x="875" y="740" width="75" height="20" as="geometry" />
        </mxCell>
        <mxCell id="XEsbzcuqn403GBl8sRR0-102" value="fun2 sp+4" style="text;html=1;strokeColor=none;fillColor=none;align=center;verticalAlign=middle;whiteSpace=wrap;rounded=0;" vertex="1" parent="1">
          <mxGeometry x="875" y="770" width="75" height="20" as="geometry" />
        </mxCell>
        <mxCell id="XEsbzcuqn403GBl8sRR0-103" value="fun2 sp" style="text;html=1;strokeColor=none;fillColor=none;align=center;verticalAlign=middle;whiteSpace=wrap;rounded=0;" vertex="1" parent="1">
          <mxGeometry x="876" y="800" width="60" height="20" as="geometry" />
        </mxCell>
        <mxCell id="XEsbzcuqn403GBl8sRR0-105" value="" style="shape=curlyBracket;whiteSpace=wrap;html=1;rounded=1;fillColor=#FFFFCC;" vertex="1" parent="1">
          <mxGeometry x="685" y="695.25" width="20" height="120" as="geometry" />
        </mxCell>
        <mxCell id="XEsbzcuqn403GBl8sRR0-106" value="fun2栈帧" style="text;html=1;strokeColor=none;fillColor=none;align=center;verticalAlign=middle;whiteSpace=wrap;rounded=0;" vertex="1" parent="1">
          <mxGeometry x="620" y="744.25" width="60" height="20" as="geometry" />
        </mxCell>
        <mxCell id="XEsbzcuqn403GBl8sRR0-107" value="" style="edgeStyle=elbowEdgeStyle;elbow=horizontal;endArrow=classic;html=1;entryX=0;entryY=0.75;entryDx=0;entryDy=0;" edge="1" parent="1" target="XEsbzcuqn403GBl8sRR0-76">
          <mxGeometry width="50" height="50" relative="1" as="geometry">
            <mxPoint x="970" y="780" as="sourcePoint" />
            <mxPoint x="960" y="690" as="targetPoint" />
            <Array as="points">
              <mxPoint x="970" y="730" />
            </Array>
          </mxGeometry>
        </mxCell>
        <mxCell id="XEsbzcuqn403GBl8sRR0-108" value="x29" style="text;html=1;strokeColor=none;fillColor=none;align=center;verticalAlign=middle;whiteSpace=wrap;rounded=0;" vertex="1" parent="1">
          <mxGeometry x="937" y="782.25" width="60" height="20" as="geometry" />
        </mxCell>
        <mxCell id="XEsbzcuqn403GBl8sRR0-110" value="......" style="rounded=0;whiteSpace=wrap;html=1;fillColor=#E5CCFF;" vertex="1" parent="1">
          <mxGeometry x="745" y="980" width="170" height="30" as="geometry" />
        </mxCell>
        <mxCell id="XEsbzcuqn403GBl8sRR0-111" value="局部变量a" style="rounded=0;whiteSpace=wrap;html=1;fillColor=#B9E0A5;" vertex="1" parent="1">
          <mxGeometry x="745" y="1070" width="170" height="30" as="geometry" />
        </mxCell>
        <mxCell id="XEsbzcuqn403GBl8sRR0-114" value="" style="endArrow=classic;html=1;" edge="1" parent="1">
          <mxGeometry width="50" height="50" relative="1" as="geometry">
            <mxPoint x="1060" y="986.25" as="sourcePoint" />
            <mxPoint x="1060" y="1430" as="targetPoint" />
          </mxGeometry>
        </mxCell>
        <mxCell id="XEsbzcuqn403GBl8sRR0-115" value="高地址" style="text;html=1;strokeColor=none;fillColor=none;align=center;verticalAlign=middle;whiteSpace=wrap;rounded=0;" vertex="1" parent="1">
          <mxGeometry x="1070" y="980" width="40" height="20" as="geometry" />
        </mxCell>
        <mxCell id="XEsbzcuqn403GBl8sRR0-117" value="main栈帧" style="text;html=1;strokeColor=none;fillColor=none;align=center;verticalAlign=middle;whiteSpace=wrap;rounded=0;" vertex="1" parent="1">
          <mxGeometry x="670" y="1075" width="60" height="20" as="geometry" />
        </mxCell>
        <mxCell id="XEsbzcuqn403GBl8sRR0-118" value="" style="shape=curlyBracket;whiteSpace=wrap;html=1;rounded=1;fillColor=#7EA6E0;" vertex="1" parent="1">
          <mxGeometry x="725" y="1010" width="25" height="150" as="geometry" />
        </mxCell>
        <mxCell id="XEsbzcuqn403GBl8sRR0-121" value="main参数1" style="rounded=0;whiteSpace=wrap;html=1;fillColor=#B9E0A5;" vertex="1" parent="1">
          <mxGeometry x="745" y="1127.5" width="170" height="30" as="geometry" />
        </mxCell>
        <mxCell id="XEsbzcuqn403GBl8sRR0-122" value="main rsp" style="text;html=1;strokeColor=none;fillColor=none;align=center;verticalAlign=middle;whiteSpace=wrap;rounded=0;" vertex="1" parent="1">
          <mxGeometry x="910" y="1136.25" width="65" height="23.75" as="geometry" />
        </mxCell>
        <mxCell id="XEsbzcuqn403GBl8sRR0-123" value="main参数0" style="rounded=0;whiteSpace=wrap;html=1;fillColor=#B9E0A5;" vertex="1" parent="1">
          <mxGeometry x="745" y="1097.5" width="170" height="30" as="geometry" />
        </mxCell>
        <mxCell id="XEsbzcuqn403GBl8sRR0-124" value="main函数父函数栈底rbp" style="rounded=0;whiteSpace=wrap;html=1;fillColor=#B9E0A5;" vertex="1" parent="1">
          <mxGeometry x="745" y="1010" width="170" height="30" as="geometry" />
        </mxCell>
        <mxCell id="XEsbzcuqn403GBl8sRR0-128" value="局部变量b" style="rounded=0;whiteSpace=wrap;html=1;fillColor=#B9E0A5;" vertex="1" parent="1">
          <mxGeometry x="745" y="1040" width="170" height="30" as="geometry" />
        </mxCell>
        <mxCell id="XEsbzcuqn403GBl8sRR0-161" value="局部变量c" style="rounded=0;whiteSpace=wrap;html=1;fillColor=#7EA6E0;" vertex="1" parent="1">
          <mxGeometry x="745" y="1217.5" width="170" height="30" as="geometry" />
        </mxCell>
        <mxCell id="XEsbzcuqn403GBl8sRR0-164" value="main函数栈底rbp" style="rounded=0;whiteSpace=wrap;html=1;fillColor=#7EA6E0;" vertex="1" parent="1">
          <mxGeometry x="745" y="1157.5" width="170" height="30" as="geometry" />
        </mxCell>
        <mxCell id="XEsbzcuqn403GBl8sRR0-166" value="局部变量d" style="rounded=0;whiteSpace=wrap;html=1;fillColor=#7EA6E0;" vertex="1" parent="1">
          <mxGeometry x="745" y="1187.5" width="170" height="30" as="geometry" />
        </mxCell>
        <mxCell id="XEsbzcuqn403GBl8sRR0-167" value="fun1参数0" style="rounded=0;whiteSpace=wrap;html=1;fillColor=#7EA6E0;" vertex="1" parent="1">
          <mxGeometry x="745" y="1247.5" width="170" height="30" as="geometry" />
        </mxCell>
        <mxCell id="XEsbzcuqn403GBl8sRR0-168" value="fun1参数1" style="rounded=0;whiteSpace=wrap;html=1;fillColor=#7EA6E0;" vertex="1" parent="1">
          <mxGeometry x="745" y="1277.5" width="170" height="30" as="geometry" />
        </mxCell>
        <mxCell id="XEsbzcuqn403GBl8sRR0-169" value="fun1函数栈底rbp" style="rounded=0;whiteSpace=wrap;html=1;fillColor=#FFFFCC;" vertex="1" parent="1">
          <mxGeometry x="745" y="1307.5" width="170" height="30" as="geometry" />
        </mxCell>
        <mxCell id="XEsbzcuqn403GBl8sRR0-170" value="fun2参数0" style="rounded=0;whiteSpace=wrap;html=1;fillColor=#FFFFCC;" vertex="1" parent="1">
          <mxGeometry x="745" y="1333.25" width="170" height="36.75" as="geometry" />
        </mxCell>
        <mxCell id="XEsbzcuqn403GBl8sRR0-171" value="&lt;span&gt;fun2参数1&lt;/span&gt;" style="rounded=0;whiteSpace=wrap;html=1;fillColor=#FFFFCC;" vertex="1" parent="1">
          <mxGeometry x="745" y="1367.5" width="170" height="30" as="geometry" />
        </mxCell>
        <mxCell id="XEsbzcuqn403GBl8sRR0-172" value="..." style="rounded=0;whiteSpace=wrap;html=1;fillColor=#FFFFCC;" vertex="1" parent="1">
          <mxGeometry x="745" y="1397.5" width="170" height="30" as="geometry" />
        </mxCell>
        <mxCell id="XEsbzcuqn403GBl8sRR0-177" value="" style="shape=curlyBracket;whiteSpace=wrap;html=1;rounded=1;fillColor=#FFFFCC;" vertex="1" parent="1">
          <mxGeometry x="725" y="1308.5" width="20" height="120" as="geometry" />
        </mxCell>
        <mxCell id="XEsbzcuqn403GBl8sRR0-178" value="fun2栈帧" style="text;html=1;strokeColor=none;fillColor=none;align=center;verticalAlign=middle;whiteSpace=wrap;rounded=0;" vertex="1" parent="1">
          <mxGeometry x="666" y="1357.5" width="60" height="20" as="geometry" />
        </mxCell>
        <mxCell id="XEsbzcuqn403GBl8sRR0-179" value="" style="edgeStyle=elbowEdgeStyle;elbow=horizontal;endArrow=classic;html=1;entryX=0;entryY=0.75;entryDx=0;entryDy=0;" edge="1" parent="1">
          <mxGeometry width="50" height="50" relative="1" as="geometry">
            <mxPoint x="1010" y="1394.75" as="sourcePoint" />
            <mxPoint x="915" y="1310" as="targetPoint" />
            <Array as="points">
              <mxPoint x="1010" y="1344.75" />
            </Array>
          </mxGeometry>
        </mxCell>
        <mxCell id="XEsbzcuqn403GBl8sRR0-180" value="rbp" style="text;html=1;strokeColor=none;fillColor=none;align=center;verticalAlign=middle;whiteSpace=wrap;rounded=0;" vertex="1" parent="1">
          <mxGeometry x="980" y="1392.25" width="60" height="20" as="geometry" />
        </mxCell>
        <mxCell id="XEsbzcuqn403GBl8sRR0-181" value="" style="shape=curlyBracket;whiteSpace=wrap;html=1;rounded=1;fillColor=#FFFFCC;" vertex="1" parent="1">
          <mxGeometry x="725" y="1160" width="20" height="150" as="geometry" />
        </mxCell>
        <mxCell id="XEsbzcuqn403GBl8sRR0-182" value="fun1栈帧" style="text;html=1;strokeColor=none;fillColor=none;align=center;verticalAlign=middle;whiteSpace=wrap;rounded=0;" vertex="1" parent="1">
          <mxGeometry x="665" y="1222.5" width="60" height="20" as="geometry" />
        </mxCell>
        <mxCell id="XEsbzcuqn403GBl8sRR0-183" value="低地址" style="text;html=1;strokeColor=none;fillColor=none;align=center;verticalAlign=middle;whiteSpace=wrap;rounded=0;" vertex="1" parent="1">
          <mxGeometry x="1070" y="1408.5" width="40" height="20" as="geometry" />
        </mxCell>
        <mxCell id="XEsbzcuqn403GBl8sRR0-184" value="" style="edgeStyle=elbowEdgeStyle;elbow=horizontal;endArrow=classic;html=1;exitX=0;exitY=0.5;exitDx=0;exitDy=0;entryX=0;entryY=0;entryDx=0;entryDy=0;strokeColor=#FF3333;" edge="1" parent="1" source="XEsbzcuqn403GBl8sRR0-169" target="XEsbzcuqn403GBl8sRR0-164">
          <mxGeometry width="50" height="50" relative="1" as="geometry">
            <mxPoint x="970" y="1290" as="sourcePoint" />
            <mxPoint x="970" y="1230" as="targetPoint" />
            <Array as="points">
              <mxPoint x="720" y="1250" />
            </Array>
          </mxGeometry>
        </mxCell>
        <mxCell id="XEsbzcuqn403GBl8sRR0-185" value="" style="edgeStyle=elbowEdgeStyle;elbow=horizontal;endArrow=classic;html=1;exitX=1;exitY=0.417;exitDx=0;exitDy=0;entryX=1;entryY=0;entryDx=0;entryDy=0;exitPerimeter=0;" edge="1" parent="1" source="XEsbzcuqn403GBl8sRR0-164" target="XEsbzcuqn403GBl8sRR0-124">
          <mxGeometry width="50" height="50" relative="1" as="geometry">
            <mxPoint x="915" y="1166.2500000000002" as="sourcePoint" />
            <mxPoint x="915" y="1016.2500000000002" as="targetPoint" />
            <Array as="points">
              <mxPoint x="1010" y="1123.75" />
            </Array>
          </mxGeometry>
        </mxCell>
        <mxCell id="XEsbzcuqn403GBl8sRR0-186" value="fun1 rsp" style="text;html=1;strokeColor=none;fillColor=none;align=center;verticalAlign=middle;whiteSpace=wrap;rounded=0;" vertex="1" parent="1">
          <mxGeometry x="915" y="1291.25" width="55" height="23.75" as="geometry" />
        </mxCell>
        <mxCell id="XEsbzcuqn403GBl8sRR0-187" value="fun2 rsp" style="text;html=1;strokeColor=none;fillColor=none;align=center;verticalAlign=middle;whiteSpace=wrap;rounded=0;" vertex="1" parent="1">
          <mxGeometry x="910" y="1412.25" width="65" height="23.75" as="geometry" />
        </mxCell>
      </root>
    </mxGraphModel>
  </diagram>
</mxfile>
